<?xml version="1.0" encoding="utf-8"?>
<!-- Generator: Adobe Illustrator 19.2.0, SVG Export Plug-In . SVG Version: 6.00 Build 0)  -->
<!DOCTYPE svg PUBLIC "-//W3C//DTD SVG 1.1//EN" "http://www.w3.org/Graphics/SVG/1.1/DTD/svg11.dtd">
<svg version="1.1" id="Layer_1" xmlns="http://www.w3.org/2000/svg" xmlns:xlink="http://www.w3.org/1999/xlink" x="0px" y="0px"
	 viewBox="0 0 212.3 101.7" style="enable-background:new 0 0 212.3 101.7;" xml:space="preserve">
<style type="text/css">
	.st0{fill:none;stroke:#4D4D4D;stroke-width:8.7434;stroke-linecap:round;stroke-linejoin:round;stroke-miterlimit:22.9256;}
	.st1{clip-path:url(#SVGID_2_);fill:url(#SVGID_3_);}
	.st2{fill-rule:evenodd;clip-rule:evenodd;fill:#4D4D4D;}
</style>
<path class="st0" d="M145,56.9c4.6,5.5,7.7,6.7,13.6-1.9c1.3-2,7.7-7.8,9.8-8.8c0.6-0.3,9.9,5.2,9.9,5.3c1.1,1.4-14.1,2-15.8,3.6
	c-6,5.7-4.5,11-14.5,11.9c-12.6,1.2-16.2-7.7-19.4-10.8c-2-1.2-4-2.3-6-3.5c1.7,10.8,0.2,22.1,0.2,33c0,7.6-27.5,3.5-27,1.8
	c9.7-29.1-32.4-37.3-22.6-0.8c-8.8,3.9-17.7,3.9-26.5,0c-1.5-17.5-3.4-34.9,4.1-46.5c-5.2-2.2-7.7-2.9-8.1,3.9
	c-0.1,1.3-0.9,4.4-1.6,5.5c-0.2,0.3-2.2-1.2-2.1-1.2c0.1-0.5,1.5-2,1.9-3.3c1.3-4.4-0.9-6.6,3.7-9.8c4.9-3.4,8.6-1.6,11.1-0.6
	c6.3-5.4,13.8-8.6,29-8.6c-0.5,9.1,11.4,30.9,28.6,34.1C99,53.1,91.9,39.9,90.6,32.6c0-0.2-0.1-0.4-0.1-0.6
	c-4.6-26.9,25.8-25.1,31.4-8.9c16.7-2.8,14.7,7.6,18.9,14.5C143.9,44.1,146.1,52.1,145,56.9z"/>
<g>
	<defs>
		<path id="SVGID_1_" d="M145,56.9c4.6,5.5,7.7,6.7,13.6-1.9c1.3-2,7.7-7.8,9.8-8.8c0.6-0.3,9.9,5.2,9.9,5.3
			c1.1,1.4-14.1,2-15.8,3.6c-6,5.7-4.5,11-14.5,11.9c-12.6,1.2-16.2-7.7-19.4-10.8c-2-1.2-4-2.3-6-3.5c1.7,10.8,0.2,22.1,0.2,33
			c0,7.6-27.5,3.5-27,1.8c9.7-29.1-32.4-37.3-22.6-0.8c-8.8,3.9-17.7,3.9-26.5,0c-1.5-17.5-3.4-34.9,4.1-46.5
			c-5.2-2.2-7.7-2.9-8.1,3.9c-0.1,1.3-0.9,4.4-1.6,5.5c-0.2,0.3-2.2-1.2-2.1-1.2c0.1-0.5,1.5-2,1.9-3.3c1.3-4.4-0.9-6.6,3.7-9.8
			c4.9-3.4,8.6-1.6,11.1-0.6c6.3-5.4,13.8-8.6,29-8.6c-0.5,9.1,11.4,30.9,28.6,34.1C99,53.1,91.9,39.9,90.6,32.6
			c0-0.2-0.1-0.4-0.1-0.6C85.9,5.1,116.3,6.8,121.8,23c16.7-2.8,14.7,7.6,18.9,14.5C143.9,44.1,146.1,52.1,145,56.9"/>
	</defs>
	<clipPath id="SVGID_2_">
		<use xlink:href="#SVGID_1_"  style="overflow:visible;"/>
	</clipPath>
	
		<linearGradient id="SVGID_3_" gradientUnits="userSpaceOnUse" x1="-30.7393" y1="807.7318" x2="-30.2793" y2="807.7318" gradientTransform="matrix(-179.082 -103.3928 85.8686 -148.7292 -74733.3203 117016.5)">
		<stop  offset="0" style="stop-color:#E5E5E5"/>
		<stop  offset="1" style="stop-color:#FFFFFF"/>
	</linearGradient>
	<polygon class="st1" points="217.6,27.1 74,-55.8 0.6,71.2 144.3,154.2 	"/>
</g>
<path class="st2" d="M131.3,32c1.2,0.3,2,1.3,1.8,2.2c-0.2,0.9-1.4,1.3-2.6,1c-1.2-0.3-2-1.3-1.8-2.2
	C128.9,32.1,130.1,31.6,131.3,32"/>
</svg>
