<svg viewBox="0 0 55 32.25" xmlns="http://www.w3.org/2000/svg"><g fill="#3f3f3f"><path d="m54.91 17a2.74 2.74 0 0 0 -.22-.55 5.88 5.88 0 0 0 -3.09-2.72 3.82 3.82 0 0 0 -2.23-.14 3.94 3.94 0 0 0 -1.89 1.14l-.35.4-.83 1.08c-.35.45-.73.92-1.12 1.37-.2.22-.39.42-.58.6a2.86 2.86 0 0 1 -.57.46.69.69 0 0 1 -.36.14h-.08s0 0-.05 0v-.05-.05a4.48 4.48 0 0 1 -.63-1.37c-.18-.57-.31-1.17-.42-1.68s-.22-1.16-.3-1.75c0-.22-.08-.46-.12-.7v-.22c0-.2-.07-.41-.12-.61s0-.21-.07-.32a13.86 13.86 0 0 0 -.6-1.83 8.92 8.92 0 0 0 -.92-1.74 7.4 7.4 0 0 0 -3-2.61 7.56 7.56 0 0 0 -2.94-.67h-.39a7.76 7.76 0 0 0 -2.57-3.31 8.9 8.9 0 0 0 -4.57-1.82 6.91 6.91 0 0 0 -2.46.14 6.1 6.1 0 0 0 -2.27 1.07 6.45 6.45 0 0 0 -1.65 1.89 8.12 8.12 0 0 0 -.86 2.25 7.72 7.72 0 0 0 -.17 1 15.81 15.81 0 0 0 -2.48.08c-.43 0-.85.08-1.27.14h-.32l-.52.1-.27.05-.39.08-.39.1a19.47 19.47 0 0 0 -3 1c-.47.19-.95.4-1.46.66l-.18.09-.53.3-.23.13a4.61 4.61 0 0 0 -.7-.42 4.2 4.2 0 0 0 -1.4-.39 3.52 3.52 0 0 0 -1.51.17l-.35.16h-.05l-.13.06-.15.11-.32.22-.27.26a4.91 4.91 0 0 0 -1.21 2.49 3.1 3.1 0 0 0 -.09.5.77.77 0 0 1 0 .15l-.07.56a1.86 1.86 0 0 1 -.32.79 3.94 3.94 0 0 1 -.68.74l-.46.47-.07.07a2.59 2.59 0 0 0 -.46.53l-.07.12a.83.83 0 0 0 -.07.18l-.06.1a.36.36 0 0 0 0 .11 1 1 0 0 0 0 .24.6.6 0 0 0 0 .24 1 1 0 0 0 .09.21 1.17 1.17 0 0 0 .2.26l.12.11.26.19a3.69 3.69 0 0 0 .35.19 2.19 2.19 0 0 0 .82.23 2.3 2.3 0 0 0 .86-.07 3.43 3.43 0 0 0 1.39-.71c-.09 1-.25 2-.33 3.18-.1 1.54-.14 3.12-.1 4.83s.14 3.3.3 4.81a.73.73 0 0 0 .32.54 9.75 9.75 0 0 0 2.82 1.36 9.61 9.61 0 0 0 3.09.38 12.05 12.05 0 0 0 3-.5 13.07 13.07 0 0 0 1.44-.52l.7-.31.7-.38a.76.76 0 0 0 .35-.79 11.7 11.7 0 0 1 0-4.7 3.42 3.42 0 0 1 1-1.78 2.68 2.68 0 0 1 1.86-.55 2.54 2.54 0 0 1 1.8.68 3.83 3.83 0 0 1 1 1.85 9.23 9.23 0 0 1 .28 2.33v1.21a11.63 11.63 0 0 1 -.14 1.18.72.72 0 0 0 .43.79l1.4.61.16.05 1.3.44 1.12.28h.26.13l.77.11h.52.27.48a9.19 9.19 0 0 0 2.68-.37l.23-.07c.17-.06.36-.12.53-.2l.37-.16.25-.12.11-.06a3.35 3.35 0 0 0 .36-.21l.09-.06.26-.17h.07l.27-.21v-.05l.11-.09h.05l.14-.14a.7.7 0 0 0 .18-.39 38.29 38.29 0 0 0 .39-5.61c0-.85 0-1.77 0-2.79 0-.16 0-.32 0-.47v-.1c.37.38.74.72 1.11 1a14.36 14.36 0 0 0 3.18 2.13 7.81 7.81 0 0 0 1.89.64 5.35 5.35 0 0 0 2.11 0 4.6 4.6 0 0 0 1.93-.95 2.1 2.1 0 0 0 .27-.24l.12-.11.24-.26.04-.04c.16-.2.32-.42.45-.61a1.36 1.36 0 0 0 .12-.17 10.11 10.11 0 0 1 2.27-2.45 4.58 4.58 0 0 1 1.39-.68 5.24 5.24 0 0 1 1.58-.18h.75 1.08a1.57 1.57 0 0 0 .86-.27 1.22 1.22 0 0 0 .39-.45 1.43 1.43 0 0 0 .13-.49 2 2 0 0 0 -.11-.7zm-21.57 1.79c.06.82.11 1.71.14 2.72s0 1.9 0 2.73a37.47 37.47 0 0 1 -.33 5.11s0 0 0 0a1.24 1.24 0 0 1 -.18.14h-.07l-.18.12-.08.05a1.64 1.64 0 0 1 -.28.16l-.28.15-.31.13a3.25 3.25 0 0 1 -.4.15l-.22.07a8.2 8.2 0 0 1 -2.64.29h-.27-.41l-.69-.11h-.12-.21l-1-.25c-.36-.11-.72-.24-1.07-.36l-.26-.09-.79-.34c0-.23.05-.47.07-.73 0-.45.05-.9.05-1.33a11.22 11.22 0 0 0 -.33-2.71 6.48 6.48 0 0 0 -.5-1.34 4.55 4.55 0 0 0 -.9-1.23 3.88 3.88 0 0 0 -1.33-.84 4.65 4.65 0 0 0 -1.5-.28 4.75 4.75 0 0 0 -1.49.18 3.76 3.76 0 0 0 -1.4.74 4.14 4.14 0 0 0 -1 1.21 5.83 5.83 0 0 0 -.52 1.37 10.23 10.23 0 0 0 -.27 2.72c0 .44 0 .89.09 1.34 0 .27.06.52.1.76l-.12.07-.62.28a12.85 12.85 0 0 1 -1.27.45 10.47 10.47 0 0 1 -2.65.44 8.31 8.31 0 0 1 -2.61-.32 7.84 7.84 0 0 1 -2.07-.95 57 57 0 0 1 -.17-9 33.2 33.2 0 0 1 .61-4.6l.28-1.11c.07-.23.14-.46.22-.68l.13-.4s0 0 0-.06c.12-.26.21-.49.3-.71l.06-.19a.29.29 0 0 0 0-.09c.14-.23-.13-.6-.37-.79s-.34-.19-.43-.12a.83.83 0 0 0 -.63.4l-.21.48c0 .14-.11.28-.15.42l-.06.33a11.91 11.91 0 0 1 -1.16 1.89 5.22 5.22 0 0 1 -.71.75 2 2 0 0 1 -.73.41.89.89 0 0 1 -.64-.06l.45-.4a5.78 5.78 0 0 0 .9-1 3.35 3.35 0 0 0 .57-1.4l.08-.61s0-.09 0-.14a1.78 1.78 0 0 1 .07-.39 3.41 3.41 0 0 1 .81-1.74l.15-.15.21-.17.07-.06h.06l.22-.1a2.19 2.19 0 0 1 .84-.09 3 3 0 0 1 1.68.79.78.78 0 0 0 1 .06c.21-.13.42-.26.61-.36l.47-.26.17-.09c.48-.23.92-.43 1.35-.61a18.53 18.53 0 0 1 2.82-.92l.36-.09.35-.1.27-.05a3.4 3.4 0 0 1 .46-.09h.33c.37-.05.76-.11 1.14-.13a15.87 15.87 0 0 1 2.35 0 9.14 9.14 0 0 0 .54 2.18 13 13 0 0 0 1 2.08 17 17 0 0 0 1.24 1.88 31.73 31.73 0 0 0 6.29 6.22.49.49 0 0 0 .65-.06.55.55 0 0 0 .12-.35.5.5 0 0 0 -.16-.33 37.41 37.41 0 0 1 -3-3 29.09 29.09 0 0 1 -2.65-3.31 15.79 15.79 0 0 1 -2.01-3.77 8.54 8.54 0 0 1 -.42-1.92v-.47-.47a6.76 6.76 0 0 1 .17-.94 5.38 5.38 0 0 1 1.9-3.14 4.91 4.91 0 0 1 3.49-.88 7.39 7.39 0 0 1 3.58 1.39 6.27 6.27 0 0 1 2.3 3 .73.73 0 0 0 .85.47 3.05 3.05 0 0 1 .36 0h.4a6.44 6.44 0 0 1 .8.07 6 6 0 0 1 1.52.46 5.81 5.81 0 0 1 2.39 2.08 7.15 7.15 0 0 1 .77 1.46 11.11 11.11 0 0 1 .52 1.61c0 .1.05.2.07.3s.08.36.11.54v.24c0 .2.07.41.1.63.1.62.2 1.23.32 1.82s.26 1.2.46 1.84a5.94 5.94 0 0 0 .91 1.88 2 2 0 0 0 .49.46 2.69 2.69 0 0 0 .29.16h.07a2 2 0 0 0 .4.1 1.9 1.9 0 0 0 .76-.08 2.26 2.26 0 0 0 .33-.13 1.48 1.48 0 0 0 .25-.14 4.64 4.64 0 0 0 .84-.66c.26-.24.49-.5.68-.7.39-.45.75-.91 1.17-1.44l.83-1.08c.08-.09.16-.19.25-.28a2.41 2.41 0 0 1 1.15-.72 2.25 2.25 0 0 1 1.34.1 4.16 4.16 0 0 1 1.29.78 4.4 4.4 0 0 1 1 1.18 1.72 1.72 0 0 1 .1.26h-.8-.83a6.73 6.73 0 0 0 -2 .24 6.24 6.24 0 0 0 -1.86.9 11.39 11.39 0 0 0 -2.64 2.83l-.1.13a6.32 6.32 0 0 1 -.4.54.52.52 0 0 1 -.1.11c0 .07-.1.12-.15.18a.52.52 0 0 0 -.11.1c-.06.05-.11.11-.17.15a3 3 0 0 1 -1.29.63 4.83 4.83 0 0 1 -3-.52 12.7 12.7 0 0 1 -2.82-1.9 17.79 17.79 0 0 1 -2.4-2.51.78.78 0 0 0 -1.19 0 .83.83 0 0 0 -.21.53z"/><circle cx="36.12" cy="10.78" r="1.02"/></g></svg>