<svg id="レイヤー_1" data-name="レイヤー 1" xmlns="http://www.w3.org/2000/svg" viewBox="0 0 290.7 111.2"><defs><style>.cls-1{fill:#d05919;}.cls-2{fill:#495f7e;}.cls-3{fill:#eda27b;}.cls-4{fill:#b3ddd5;}.cls-5{fill:#00441f;}</style></defs><path class="cls-1" d="M296.65,117.69c-.19-.57-.29-.65-1.09-.65h-4c-.66,0-.82.08-1,.62l-.93,2.73a9.61,9.61,0,0,0-.58,2.15c0,.32.13.47.76.52l.88.08a.42.42,0,0,1-.05.65c-.69-.05-1.51-.05-2.76-.08-.87,0-1.83.05-2.54.08a.5.5,0,0,1-.06-.65l.88-.08a1.75,1.75,0,0,0,1.59-1.27c.47-1.19,1.22-2.88,2.33-5.79l2.7-7a3.69,3.69,0,0,0,.45-1.85,3,3,0,0,0,1.38-1,.38.38,0,0,1,.4.23c.34,1.14.77,2.34,1.16,3.48l3.63,10.44c.77,2.23,1.12,2.62,2.25,2.75l.72.08c.19.13.13.55,0,.65-1.09-.05-2-.08-3.21-.08s-2.27.05-3,.08a.44.44,0,0,1-.06-.65l.77-.08c.56,0,.93-.2.93-.46a5.21,5.21,0,0,0-.34-1.38Zm-5.25-2.31c-.21.59-.18.62.56.62h3.26c.77,0,.82-.1.58-.81L294.37,111a16.06,16.06,0,0,0-.61-1.63h-.05a14.55,14.55,0,0,0-.64,1.53Z" transform="translate(-154.65 -94.4)"/><path class="cls-1" d="M313.6,124.13a8.46,8.46,0,0,1-4.13-1,11.94,11.94,0,0,1-.72-3.64c.14-.18.53-.23.64-.08.4,1.33,1.49,3.87,4.56,3.87a3,3,0,0,0,3.31-3,3.89,3.89,0,0,0-2.17-3.64l-2.52-1.61a5.55,5.55,0,0,1-2.86-4.47c0-2.46,2-4.46,5.4-4.46a10.61,10.61,0,0,1,2.47.33,3.35,3.35,0,0,0,.93.16,11.49,11.49,0,0,1,.47,3.17c-.1.15-.53.23-.66.08a3.44,3.44,0,0,0-3.6-2.94c-2.6,0-3.16,1.69-3.16,2.88,0,1.51,1.28,2.6,2.26,3.2l2.11,1.3c1.67,1,3.32,2.52,3.32,5C319.25,122.18,317.05,124.13,313.6,124.13Z" transform="translate(-154.65 -94.4)"/><path class="cls-1" d="M332.28,115.32c-1.27,0-1.32.06-1.32.84v3.66c0,2.72.13,3.09,1.61,3.24l.77.08a.5.5,0,0,1,0,.65c-1.43-.05-2.33-.08-3.37-.08s-2,.05-3.07.08a.5.5,0,0,1-.05-.65l.45-.08c1.48-.26,1.53-.52,1.53-3.24v-9.35c0-2.73-.18-3.17-1.56-3.27l-.69-.06c-.16-.1-.1-.57.05-.65,1.3,0,2.2.08,3.34.08s1.94,0,3.08-.08c.16.08.21.55.05.65l-.5.06c-1.54.15-1.59.54-1.59,3.27v3c0,.81.05.84,1.32.84h7.58c1.27,0,1.32,0,1.32-.84v-3c0-2.73-.05-3.12-1.61-3.27l-.51-.06c-.15-.1-.1-.57.06-.65,1.22.06,2.12.08,3.2.08s1.94,0,3.13-.08c.16.08.21.55.05.65l-.55.06c-1.54.15-1.59.54-1.59,3.27v9.35c0,2.72.05,3.06,1.59,3.24l.63.08a.5.5,0,0,1-.05.65c-1.27-.05-2.17-.08-3.21-.08s-2,0-3.2.08a.51.51,0,0,1-.06-.65l.51-.08c1.61-.26,1.61-.52,1.61-3.24v-3.66c0-.78-.05-.84-1.32-.84Z" transform="translate(-154.65 -94.4)"/><path class="cls-1" d="M356,110.52c0-2.75,0-3.19-1.61-3.32l-.66-.06c-.16-.1-.11-.57.05-.65,1.32.06,2.22.08,3.34.08s2,0,3.28-.08c.16.08.21.55.06.65l-.67.06c-1.56.13-1.61.57-1.61,3.32v9.25c0,2.75.05,3.11,1.61,3.29l.67.08a.51.51,0,0,1-.06.65c-1.32-.05-2.22-.08-3.28-.08s-2,0-3.34.08a.5.5,0,0,1-.05-.65l.66-.08c1.56-.18,1.61-.54,1.61-3.29Z" transform="translate(-154.65 -94.4)"/><path class="cls-1" d="M377.21,112c1.38-1.92,2.15-2.9,2.57-3.68a1.68,1.68,0,0,0,.32-.7c0-.13-.27-.21-1-.21H375.2c-2.12,0-3.31.18-3.95.85a7.62,7.62,0,0,0-1.17,1.77.53.53,0,0,1-.66-.18,38.74,38.74,0,0,0,1.09-3.9.51.51,0,0,1,.45,0c.08.63.48.65,2.62.65h7a25.41,25.41,0,0,0,3-.08.23.23,0,0,1,.16.24,52.18,52.18,0,0,0-4.34,5.56l-4.37,6.18a32.06,32.06,0,0,0-2.63,4c0,.26.27.31.74.37.69,0,2.07,0,3.93,0,1.69,0,3.89,0,4.9-.6a5,5,0,0,0,1.85-2.39c.24-.08.58,0,.66.18a13.91,13.91,0,0,1-1.19,3.69c-1.46-.05-3-.08-4.82-.08H371.7c-1.4,0-2.36.05-3,.08a.33.33,0,0,1-.13-.31,32.59,32.59,0,0,0,2.89-3.53Z" transform="translate(-154.65 -94.4)"/><path class="cls-1" d="M405.66,113.09c0-1.61-.05-4.6-.5-5.37-.18-.32-.66-.5-1.32-.55l-.67,0a.48.48,0,0,1,.06-.63c1,.06,2,.08,3,.08s1.83,0,2.78-.08a.45.45,0,0,1,.05.63l-.63,0a1.58,1.58,0,0,0-1.33.62c-.37.86-.37,3.85-.37,5.3V116c0,2.26-.37,4.64-1.85,6.2a7.06,7.06,0,0,1-5.06,1.9,7.66,7.66,0,0,1-5-1.43c-1.4-1.14-2.07-3-2.07-6.13v-6.13c0-2.7-.05-3.14-1.59-3.27l-.66,0c-.16-.11-.1-.55.06-.63,1.32.06,2.22.08,3.28.08s2,0,3.26-.08a.47.47,0,0,1,0,.63l-.63,0c-1.54.13-1.59.57-1.59,3.27v5.61c0,4.18,1.32,6.94,5.38,6.94,3.84,0,5.29-3,5.29-6.91Z" transform="translate(-154.65 -94.4)"/><path class="cls-1" d="M417.56,110.49c0-2.46-.08-2.9-1.17-3l-.84-.11a.43.43,0,0,1,0-.65c1.48-.13,3.31-.21,5.91-.21a9.5,9.5,0,0,1,4.42.78,3.85,3.85,0,0,1,2.2,3.64,4.81,4.81,0,0,1-3.31,4.34c-.13.15,0,.41.13.62,2.12,3.35,3.53,5.43,5.33,6.91a3.25,3.25,0,0,0,1.83.73.21.21,0,0,1,0,.36,4.05,4.05,0,0,1-1.16.13c-2.25,0-3.61-.65-5.49-3.27-.69-1-1.77-2.76-2.59-3.92A1.89,1.89,0,0,0,421,116c-1.2,0-1.25,0-1.25.58v3.27c0,2.72,0,3,1.59,3.24l.56.08a.5.5,0,0,1-.06.65c-1.19-.05-2.09-.08-3.15-.08s-2.07,0-3.31.08a.49.49,0,0,1-.05-.65l.66-.08c1.54-.18,1.59-.52,1.59-3.24Zm2.17,3.72a2,2,0,0,0,.08.86,5.42,5.42,0,0,0,1.83.12,4.53,4.53,0,0,0,2.73-.67,3.71,3.71,0,0,0,1.32-3.22,3.87,3.87,0,0,0-4.24-4c-1.64,0-1.72.1-1.72.83Z" transform="translate(-154.65 -94.4)"/><path class="cls-1" d="M439.94,110.52c0-2.75-.05-3.19-1.61-3.32l-.66-.06c-.16-.1-.11-.57.05-.65,1.32.06,2.22.08,3.34.08s2,0,3.28-.08c.16.08.21.55.06.65l-.67.06c-1.56.13-1.61.57-1.61,3.32v9.25c0,2.75.05,3.11,1.61,3.29l.67.08a.51.51,0,0,1-.06.65c-1.32-.05-2.22-.08-3.28-.08s-2,0-3.34.08a.5.5,0,0,1-.05-.65l.66-.08c1.56-.18,1.61-.54,1.61-3.29Z" transform="translate(-154.65 -94.4)"/><path class="cls-1" d="M295.51,155.64c0,2.73.05,3.12,1.59,3.25l.85.07c.16.11.1.57-.06.65-1.51-.05-2.41-.08-3.47-.08s-2,0-3.68.08a.45.45,0,0,1,0-.65l.95-.07c1.52-.13,1.65-.52,1.65-3.25V144c0-.8,0-.83-.8-.83h-1.45c-1.14,0-2.6.05-3.26.65a4.79,4.79,0,0,0-1.2,1.79.5.5,0,0,1-.68-.18,26.65,26.65,0,0,0,1-3.87.69.69,0,0,1,.51,0c.15.83,1,.8,2.25.8h10.73c1.43,0,1.67,0,2.06-.72.14,0,.43,0,.48.08a15.39,15.39,0,0,0-.4,3.94c-.1.21-.55.21-.68.05-.08-.65-.27-1.61-.67-1.89a5.36,5.36,0,0,0-3.07-.65h-1.88c-.8,0-.77,0-.77.88Z" transform="translate(-154.65 -94.4)"/><path class="cls-1" d="M316,151.15c-1.27,0-1.32,0-1.32.83v3.66c0,2.73.13,3.09,1.61,3.25l.77.07a.5.5,0,0,1,0,.65c-1.43-.05-2.33-.08-3.37-.08s-2,.06-3.07.08a.5.5,0,0,1,0-.65l.45-.07c1.48-.26,1.53-.52,1.53-3.25v-9.35c0-2.73-.18-3.17-1.56-3.27l-.69-.05c-.16-.11-.1-.58.06-.65,1.29,0,2.19.07,3.33.07s1.94,0,3.08-.07a.5.5,0,0,1,.05.65l-.5.05c-1.54.15-1.59.54-1.59,3.27v3c0,.8.05.83,1.32.83h7.58c1.27,0,1.32,0,1.32-.83v-3c0-2.73-.05-3.12-1.61-3.27l-.51-.05a.51.51,0,0,1,.06-.65c1.22.05,2.12.07,3.2.07s1.94,0,3.13-.07a.5.5,0,0,1,.05.65l-.55.05c-1.54.15-1.59.54-1.59,3.27v9.35c0,2.73,0,3.06,1.59,3.25l.63.07a.5.5,0,0,1-.05.65c-1.27-.05-2.17-.08-3.21-.08s-2,0-3.2.08a.51.51,0,0,1-.06-.65l.51-.07c1.61-.26,1.61-.52,1.61-3.25V152c0-.78-.05-.83-1.32-.83Z" transform="translate(-154.65 -94.4)"/><path class="cls-1" d="M339.12,146.29c0-2.7-.06-3.09-1.62-3.27l-.42-.05a.5.5,0,0,1,.05-.65c1.14.05,2,.07,3.13.07h5c1.69,0,3.26,0,3.57-.07a29,29,0,0,1,.43,3.45.53.53,0,0,1-.67,0c-.39-1.22-.63-2.13-2-2.46a12.81,12.81,0,0,0-2.57-.16h-1.91c-.79,0-.79.05-.79,1v5.19c0,.73.08.73.87.73h1.54A9.58,9.58,0,0,0,346,150c.32-.1.5-.26.64-.9l.21-1.07a.52.52,0,0,1,.69,0c0,.62-.11,1.63-.11,2.62s.11,1.92.11,2.49a.54.54,0,0,1-.69,0l-.24-1a1.12,1.12,0,0,0-.82-1,8.69,8.69,0,0,0-2-.13h-1.54c-.79,0-.87,0-.87.7v3.66c0,1.38.08,2.26.5,2.7s.88.6,3.21.6c2,0,2.81-.1,3.39-.39a6.53,6.53,0,0,0,1.88-2.52.49.49,0,0,1,.66.18,22.14,22.14,0,0,1-1.19,3.61c-2.38-.05-4.74-.08-7.1-.08h-2.38c-1.14,0-2.05,0-3.61.08a.5.5,0,0,1,0-.65l.87-.07c1.51-.13,1.65-.52,1.65-3.25Z" transform="translate(-154.65 -94.4)"/><path class="cls-1" d="M360.42,146.32c0-2.47-.08-2.91-1.17-3l-.85-.11a.43.43,0,0,1,0-.65c1.48-.13,3.31-.2,5.91-.2a9.53,9.53,0,0,1,4.42.78,3.84,3.84,0,0,1,2.2,3.63,4.83,4.83,0,0,1-3.31,4.34c-.13.15,0,.41.13.62,2.12,3.35,3.52,5.43,5.33,6.91a3.18,3.18,0,0,0,1.82.73.21.21,0,0,1,0,.36,4.1,4.1,0,0,1-1.16.13c-2.26,0-3.61-.65-5.49-3.27-.69-1-1.77-2.75-2.59-3.92a1.92,1.92,0,0,0-1.89-.83c-1.19,0-1.24,0-1.24.57v3.27c0,2.73.05,3,1.59,3.25l.55.07a.5.5,0,0,1-.05.65c-1.19-.05-2.09-.08-3.15-.08s-2.07,0-3.31.08a.5.5,0,0,1-.06-.65l.67-.07c1.53-.19,1.59-.52,1.59-3.25Zm2.17,3.71a2,2,0,0,0,.08.86,5.15,5.15,0,0,0,1.83.13,4.49,4.49,0,0,0,2.72-.68,3.67,3.67,0,0,0,1.33-3.22,3.87,3.87,0,0,0-4.24-4c-1.64,0-1.72.11-1.72.83Z" transform="translate(-154.65 -94.4)"/><path class="cls-1" d="M390.25,152.6c.61,1.22,1.19,2.42,1.82,3.56h.06c.71-1.22,1.38-2.57,2-3.9l2.49-5c1.19-2.36,2-3.79,2-5,.9.07,1.46.07,2,.07s1.54,0,2.36-.07a.53.53,0,0,1,0,.65l-.55.05c-1.67.15-1.88.65-1.86,2.47.06,2.75.08,7.55.29,11.29.08,1.3.06,2,1.3,2.11l.85.07a.48.48,0,0,1-.05.65c-1.09-.05-2.18-.08-3.13-.08s-2.12,0-3.21.08a.48.48,0,0,1-.05-.65l.77-.07c1.3-.13,1.3-.55,1.3-2.21l-.08-10.83h-.05c-.19.28-1.2,2.36-1.73,3.37l-2.35,4.55c-1.2,2.28-2.39,4.73-2.87,5.92a.29.29,0,0,1-.26.1.32.32,0,0,1-.24-.1,56.51,56.51,0,0,0-2.33-5.19l-2.38-5c-.56-1.19-1.12-2.54-1.7-3.74h0c-.11,1.61-.19,3.12-.27,4.63s-.18,3.89-.18,6.1c0,1.92.15,2.34,1.19,2.42l1,.07c.18.16.15.57,0,.65-.9-.05-1.94-.08-2.94-.08s-1.8,0-2.71.08c-.15-.13-.21-.52-.05-.65l.58-.07c1.12-.16,1.49-.32,1.65-2.13s.29-3.15.45-5.72c.13-2.15.24-4.36.29-5.79.05-1.63-.16-2-1.78-2.23l-.42-.05a.47.47,0,0,1,.11-.65c.79.05,1.43.07,2.09.07s1.32,0,2.2-.07c-.11,1,.56,2.62,1.38,4.28Z" transform="translate(-154.65 -94.4)"/><path class="cls-1" d="M419.65,153.51c-.18-.57-.29-.65-1.08-.65h-4c-.67,0-.83.08-1,.62l-.93,2.73a9.5,9.5,0,0,0-.58,2.16c0,.31.13.46.77.52l.87.07a.41.41,0,0,1-.05.65c-.69-.05-1.51-.05-2.76-.08-.87,0-1.83.06-2.54.08a.5.5,0,0,1,0-.65l.87-.07a1.76,1.76,0,0,0,1.59-1.28c.48-1.19,1.22-2.88,2.33-5.79l2.7-7a3.57,3.57,0,0,0,.45-1.84,3,3,0,0,0,1.38-1,.38.38,0,0,1,.4.23c.34,1.15.77,2.34,1.17,3.48l3.63,10.44c.76,2.24,1.11,2.63,2.25,2.76l.71.07a.49.49,0,0,1,0,.65c-1.08-.05-2-.08-3.2-.08s-2.28.06-3.05.08a.43.43,0,0,1,0-.65l.77-.07c.55-.06.92-.21.92-.47a5.3,5.3,0,0,0-.34-1.38Zm-5.24-2.31c-.21.6-.19.62.55.62h3.26c.77,0,.82-.1.58-.8l-1.43-4.24c-.21-.62-.45-1.32-.6-1.63h-.06a15.5,15.5,0,0,0-.63,1.53Z" transform="translate(-154.65 -94.4)"/><path class="cls-1" d="M433.53,146.29c0-2.7,0-3.09-1.61-3.27l-.43-.05c-.16-.11-.1-.58.06-.65,1.14.05,2,.07,3.12.07h5c1.7,0,3.26,0,3.58-.07a27.34,27.34,0,0,1,.42,3.45.51.51,0,0,1-.66,0c-.4-1.22-.63-2.13-2-2.46a12.87,12.87,0,0,0-2.57-.16H436.5c-.79,0-.79.05-.79,1v5.19c0,.73.08.73.87.73h1.54a9.58,9.58,0,0,0,2.25-.16c.32-.1.5-.26.63-.9l.22-1.07a.52.52,0,0,1,.69,0c0,.62-.11,1.63-.11,2.62s.11,1.92.11,2.49a.54.54,0,0,1-.69,0l-.24-1a1.12,1.12,0,0,0-.82-1,8.69,8.69,0,0,0-2-.13h-1.54c-.79,0-.87,0-.87.7v3.66c0,1.38.08,2.26.5,2.7s.87.6,3.21.6c2,0,2.8-.1,3.39-.39a6.63,6.63,0,0,0,1.88-2.52.49.49,0,0,1,.66.18,23.15,23.15,0,0,1-1.19,3.61c-2.39-.05-4.74-.08-7.1-.08h-2.39c-1.14,0-2,0-3.6.08A.5.5,0,0,1,431,159l.87-.07c1.51-.13,1.64-.52,1.64-3.25Z" transform="translate(-154.65 -94.4)"/><path class="cls-1" d="M295.07,188.78a10.51,10.51,0,0,1-4,4.65,1.35,1.35,0,0,1-.56.25.25.25,0,0,1-.24-.27c0-.06,0-.19.22-.33a11.31,11.31,0,0,0,3.69-4.92,14.07,14.07,0,0,0,1-5c0-.39,0-.7-.2-.83a1.85,1.85,0,0,0-.86-.22c-.12,0-.18-.07-.18-.15a.47.47,0,0,1,.24-.35,1.13,1.13,0,0,1,.64-.17,3.59,3.59,0,0,1,1.36.25c.32.12.44.29.44.56a1.72,1.72,0,0,1-.12.39,5.07,5.07,0,0,0-.08.69,23.08,23.08,0,0,0,3.94-3.4c.14-.15.1-.27-.16-.27s-2.39.14-4.24.35c-1.42.17-3,.33-4.33.58a3.86,3.86,0,0,0-1.1.31.78.78,0,0,1-.55.17,2.45,2.45,0,0,1-1.36-1,1.78,1.78,0,0,1-.46-1c0-.19.06-.39.18-.39s.2.1.34.24a1.89,1.89,0,0,0,1.37.67,17.54,17.54,0,0,0,1.86-.13c3-.29,4.8-.45,7.56-.66.6,0,.73-.08.89-.25a.53.53,0,0,1,.34-.16,2.29,2.29,0,0,1,1.12.66,1.77,1.77,0,0,1,.68,1.06c0,.24-.2.41-.48.45a2,2,0,0,0-1.1.44,36.32,36.32,0,0,1-4.58,3A14.57,14.57,0,0,1,295.07,188.78Z" transform="translate(-154.65 -94.4)"/><path class="cls-1" d="M312.63,183.52c0-.13.08-.21.3-.21a5.42,5.42,0,0,1,1.88.47c.86.4,1.41.88,1.41,1.48s-.32.83-.69.83-.54-.25-.78-.6a5.39,5.39,0,0,0-1.92-1.68A.35.35,0,0,1,312.63,183.52Zm3.63,6.88a40.79,40.79,0,0,0,5.87-4,40.21,40.21,0,0,0,4.14-3.88c.2-.23.34-.39.42-.39s.3.12.3.26,0,.15-.22.44a24.25,24.25,0,0,1-4.19,4.52,47,47,0,0,1-5.74,4.31,1.26,1.26,0,0,0-.4.4.83.83,0,0,1-.6.41c-.31,0-.75-.35-1.17-.81a2.46,2.46,0,0,1-.76-1.55c0-.29,0-.54.2-.54s.22.1.34.31.7.83,1,.83A1.55,1.55,0,0,0,316.26,190.4Zm-1.13-11.12c0-.12.08-.2.3-.2a5,5,0,0,1,1.93.66c.82.48,1.2.91,1.2,1.49a.74.74,0,0,1-.72.79.82.82,0,0,1-.62-.43,7.25,7.25,0,0,0-1.93-2.06A.3.3,0,0,1,315.13,179.28Z" transform="translate(-154.65 -94.4)"/><path class="cls-1" d="M349,189.26a3.18,3.18,0,0,1,.94,1.64c0,.54-.3.76-.58.76s-.56-.14-.83-.55a13.61,13.61,0,0,0-5-4.57,21.94,21.94,0,0,1-7.54,5.52,1.43,1.43,0,0,1-.54.16.21.21,0,0,1-.23-.2.24.24,0,0,1,.15-.27,27.13,27.13,0,0,0,6.64-5.17,23.86,23.86,0,0,0,3.61-5.08c.08-.14.1-.18.1-.22s-.06-.05-.1-.05a49.26,49.26,0,0,0-5.48.79,1.9,1.9,0,0,0-.68.23.86.86,0,0,1-.5.14c-.36,0-.77-.22-1.37-.87a1.78,1.78,0,0,1-.5-1.1c0-.2.1-.31.18-.31s.18.09.26.17a2.25,2.25,0,0,0,1.49.79c.22,0,1.06-.09,1.52-.13l4.57-.49a1.42,1.42,0,0,0,.77-.36.63.63,0,0,1,.38-.22,1.82,1.82,0,0,1,1,.47c.36.27.56.48.56.79s-.2.33-.5.46a1,1,0,0,0-.62.56A37.22,37.22,0,0,1,344,186,15.28,15.28,0,0,1,349,189.26Zm-1.23-11.64a4.62,4.62,0,0,1,1.47.84,2.14,2.14,0,0,1,.86,1.34c0,.38-.2.6-.5.6s-.4-.16-.66-.68a5.87,5.87,0,0,0-1.47-1.68.27.27,0,0,1-.12-.21.23.23,0,0,1,.22-.23A.68.68,0,0,1,347.73,177.62Zm1.79-1.24a5.47,5.47,0,0,1,1.42.68,2,2,0,0,1,.89,1.33.5.5,0,0,1-.45.56c-.24,0-.38-.08-.66-.56a5.18,5.18,0,0,0-1.64-1.66.26.26,0,0,1-.08-.2.2.2,0,0,1,.2-.21A1.39,1.39,0,0,1,349.52,176.38Z" transform="translate(-154.65 -94.4)"/><path class="cls-1" d="M369.2,178.31a2.14,2.14,0,0,0-1-.5c-.16,0-.26-.1-.26-.27s.38-.39.74-.39a4.67,4.67,0,0,1,1.42.41c.54.25,1,.54,1,1a.63.63,0,0,1-.17.41c-.12.13-.2.33-.22,1,0,2.09,0,3.9-.2,5.43a9.68,9.68,0,0,1-1.4,4.46,10.51,10.51,0,0,1-6,4.15,2.5,2.5,0,0,1-.38.06.26.26,0,0,1-.08-.52,11.06,11.06,0,0,0,5.72-4.56,10.37,10.37,0,0,0,1-4.13c.12-1.59.12-3.46.1-5.53C369.46,178.7,369.42,178.56,369.2,178.31Zm-5.14,1.2a1.66,1.66,0,0,0-.78-.6c-.2-.08-.26-.1-.26-.23s.32-.37.48-.37a2.75,2.75,0,0,1,1.39.56c.52.35.84.6.84.95a.6.6,0,0,1-.2.42c-.1.1-.18.31-.2.91,0,1.24-.06,3.32-.06,5.79,0,.68-.22.85-.46.85s-.42-.17-.59-.5a2.28,2.28,0,0,1-.24-1,1.73,1.73,0,0,1,.08-.54,2.65,2.65,0,0,0,.09-.62c.07-1.68.09-3.13.09-4.46C364.24,179.93,364.22,179.74,364.06,179.51Z" transform="translate(-154.65 -94.4)"/><path class="cls-1" d="M386.94,184.3a3.28,3.28,0,0,0-1,.29.85.85,0,0,1-.5.15,2,2,0,0,1-1.16-.62,1.77,1.77,0,0,1-.65-1c0-.25.07-.35.15-.35a.33.33,0,0,1,.18.08,2.27,2.27,0,0,0,1.36.68,9.14,9.14,0,0,0,1-.06c1.65-.18,3-.31,4.88-.47l4.49-.4a1.85,1.85,0,0,0,.86-.21,1,1,0,0,1,.53-.2,3.11,3.11,0,0,1,1.34.43c.34.21.48.4.48.67a.4.4,0,0,1-.46.43c-.46,0-.88-.08-1.43-.1s-1.4,0-2.08,0c-1,0-2.09.08-3,.14.54.33.9.69.9.94a.53.53,0,0,1-.12.33,1,1,0,0,0-.24.43,13.09,13.09,0,0,1-2.06,4.52,13.36,13.36,0,0,1-3.84,3.63.69.69,0,0,1-.38.13.25.25,0,0,1-.22-.25c0-.13,0-.19.2-.31a15,15,0,0,0,3.35-3.8,14.17,14.17,0,0,0,1.69-4.1,2.3,2.3,0,0,0,.08-.63,1.12,1.12,0,0,0-.34-.8C389.6,183.91,388.18,184.08,386.94,184.3Zm3-5.31c.85-.08,1.87-.2,2.73-.35a4.14,4.14,0,0,0,1.11-.27,1.91,1.91,0,0,1,.72-.18,1.69,1.69,0,0,1,.88.2c.34.23.44.4.44.62s-.22.44-.6.48c-1.69.17-3.77.33-5.64.48-.42,0-.82.08-1.28.08a1.71,1.71,0,0,1-1.3-.48c-.43-.37-.71-.7-.71-1s.1-.29.22-.29.14.06.26.17a2.35,2.35,0,0,0,1.51.62C388.86,179.08,389.66,179,390,179Z" transform="translate(-154.65 -94.4)"/><path class="cls-1" d="M411.11,182.6a2.92,2.92,0,0,0-.68-.43c-.18-.09-.26-.13-.26-.25s.2-.31.46-.31a3.14,3.14,0,0,1,1.6.64c.36.25.77.64.77,1.06a.57.57,0,0,1-.24.45,1.32,1.32,0,0,0-.35.75,14,14,0,0,1-1.94,4.09,12.4,12.4,0,0,1-3.21,3.21.63.63,0,0,1-.32.12c-.1,0-.24-.06-.24-.16a.3.3,0,0,1,.14-.29,13.59,13.59,0,0,0,2.73-3.36,14.57,14.57,0,0,0,1.58-3.71,5.64,5.64,0,0,0,.2-1.18A.73.73,0,0,0,411.11,182.6Zm3.65-1.62c-.12-.31-.44-.49-1-.72-.1,0-.18-.08-.18-.19s.26-.37.6-.37a3.12,3.12,0,0,1,1.44.56c.44.27.75.54.75.89a.72.72,0,0,1-.22.48,1.37,1.37,0,0,0-.18.74c-.06,2-.11,4.11-.11,6.48,0,.1,0,.16.09.16a.69.69,0,0,0,.26-.08,30.09,30.09,0,0,0,7.1-4.65c.1-.08.16-.14.26-.14a.28.28,0,0,1,.26.25.36.36,0,0,1-.1.22,27,27,0,0,1-7,5.58,1.09,1.09,0,0,0-.42.44.46.46,0,0,1-.4.27c-.23,0-.59-.35-.81-.6a1.57,1.57,0,0,1-.48-.9,1.12,1.12,0,0,1,.1-.33,1.61,1.61,0,0,0,.08-.56c0-2,0-4.43,0-6.22A3.73,3.73,0,0,0,414.76,181Z" transform="translate(-154.65 -94.4)"/><path class="cls-1" d="M441.74,180.36a2.46,2.46,0,0,0,.25-1c0-.38-.33-.69-1.15-1-.16-.06-.24-.1-.24-.21s.22-.35.62-.35a3.35,3.35,0,0,1,1.69.62c.62.44,1,.79,1,1.21s-.16.41-.4.53a1.91,1.91,0,0,0-.58.79c-.6,1.23-1.21,2.43-2,3.84a10.75,10.75,0,0,1,1.59,1.58,2.46,2.46,0,0,1,.74,1.55.64.64,0,0,1-.62.69c-.22,0-.42-.11-.67-.54a11.47,11.47,0,0,0-1.68-2.24,22.49,22.49,0,0,1-8,7.46.67.67,0,0,1-.39.11.24.24,0,0,1-.26-.27.34.34,0,0,1,.18-.27,23.88,23.88,0,0,0,7.59-7.82,21.87,21.87,0,0,0-3-2.08c-.24-.14-.3-.22-.3-.35a.22.22,0,0,1,.24-.21,1.86,1.86,0,0,1,.42.11,18.68,18.68,0,0,1,3.23,1.6A39.87,39.87,0,0,0,441.74,180.36Z" transform="translate(-154.65 -94.4)"/><path class="cls-2" d="M264.36,165.18a2.93,2.93,0,0,0,1.39-1.86,41.86,41.86,0,0,0,1.14-6.28,2.64,2.64,0,0,0-.63-1.66,2.81,2.81,0,0,0-2-.95c-5.56-.36-12.73-.59-18.27-.59l-6.93,0h-.14a.23.23,0,0,0-.22.15.21.21,0,0,0,0,.24c6.51,6.3,17.11,9.39,22.8,11.05l.51.15A3,3,0,0,0,264.36,165.18Z" transform="translate(-154.65 -94.4)"/><path class="cls-3" d="M266,137.61a2.11,2.11,0,0,0-2.06-1.62,1.69,1.69,0,0,0-1.06.29c-5.63,4.23-18.81,11.22-18.94,11.29-.43.25-1,1.05-.9,1.48a8,8,0,0,1,.42,2.14,1,1,0,0,0,1.05,1.07h20.75c1,0,2.12-1.66,2.12-3.07A51.36,51.36,0,0,0,266,137.61Z" transform="translate(-154.65 -94.4)"/><path class="cls-4" d="M239.85,147.21a11.08,11.08,0,0,0-15.88,0,7.48,7.48,0,0,0-2.08,4.2.77.77,0,0,0,.19.62.75.75,0,0,0,.58.26h18.5a.77.77,0,0,0,.58-.26.8.8,0,0,0,.19-.63A7.45,7.45,0,0,0,239.85,147.21Z" transform="translate(-154.65 -94.4)"/><path class="cls-2" d="M172.23,183.44c11.69-2.22,42.75-8.12,56.09-29.26a.18.18,0,0,0,0-.2.18.18,0,0,0-.17-.11c-.44,0-50.89.55-69.21,1.76h0a3.46,3.46,0,0,0-2.72,1.28,4.48,4.48,0,0,0-.45,3.71c1.9,8,3.42,13.35,8.58,21C166.14,184.22,169.5,184,172.23,183.44Z" transform="translate(-154.65 -94.4)"/><path class="cls-5" d="M211,205.6a57.35,57.35,0,0,0,31.26-9.08A54.37,54.37,0,0,0,263,171.62a3.74,3.74,0,0,0,.24-2.73,3,3,0,0,0-1.86-1.58c-4.31-1.25-17.44-5.06-25-13.28a.81.81,0,0,0-.58-.25h-4.88a.89.89,0,0,0-.76.43c-13.48,22.28-45,30.31-57.88,32.73a1.78,1.78,0,0,0-1.39,1.25,1.75,1.75,0,0,0,.44,1.78C181.62,200.2,195.34,205.6,211,205.6Z" transform="translate(-154.65 -94.4)"/><path class="cls-1" d="M243,103.7c-8.35-5.74-20.62-9.3-32-9.3a58.5,58.5,0,0,0-25.72,5.9,54.32,54.32,0,0,0-20.09,17c-1,1.39-2,3.46.82,5.49,10.85,7.83,53.63,23.82,54.06,24a2.23,2.23,0,0,0,2.6-.58,13.31,13.31,0,0,1,9.32-4,12.9,12.9,0,0,1,8.63,3.37c.2.18.84.79,1,1,.39.43,1.18.06,1.83-.31.13-.07,12.69-6.6,17.88-11,1.61-1.36,2.81-4,2-5.94A56,56,0,0,0,243,103.7Z" transform="translate(-154.65 -94.4)"/><path class="cls-3" d="M158.14,152.26h61.12c.36,0,1.21-.17,1.25-1a7.43,7.43,0,0,1,.29-1.4c.37-1-.18-1.29-.71-1.53l-.25-.12c-.38-.14-40-14.91-54.76-22.8a5.68,5.68,0,0,0-2.61-.8,2.52,2.52,0,0,0-.93.16,3.68,3.68,0,0,0-2,2.33c-1.83,4.76-4.91,13.84-4.91,21.08a4.5,4.5,0,0,0,.95,3.32A3.4,3.4,0,0,0,158.14,152.26Z" transform="translate(-154.65 -94.4)"/></svg>